<svg width="24" height="24" fill="none" xmlns="http://www.w3.org/2000/svg"><g clip-path="url(#clip0_6287_7171)"><path d="M12 1.25c-5.937 0-10.75 4.817-10.75 10.76 0 5.805 4.596 10.524 10.343 10.74v-7.47h-2.52v-2.932h2.52v-2.157c0-2.501 1.527-3.864 3.757-3.864.751-.002 1.502.036 2.249.113v2.614h-1.535c-1.215 0-1.452.575-1.452 1.423v1.867h2.903l-.378 2.932h-2.542v7.165c4.68-1.163 8.155-5.385 8.155-10.43C22.75 6.066 17.937 1.25 12 1.25z" fill="#fff"/></g><defs><clipPath id="clip0_6287_7171"><path fill="#fff" d="M0 0h24v24H0z"/></clipPath></defs></svg>