<svg xmlns="http://www.w3.org/2000/svg" width="737pt" height="279.5pt" viewBox="0 0 737 279.5"><defs><clipPath id="a" fill="#000"><path d="M4 190h370v89.5H4zm0 0"/></clipPath></defs><path d="M737.055 84.89c-2.446 1.465-4.399 4.4-7.817 5.376-.98 1.953-2.933 4.886-5.375 4.886-.488 2.926-1.465 6.352-3.422 9.282-.976 2.445-4.394 1.953-4.882 5.375-3.422 4.886-5.864 10.75-9.286 15.632-1.953 3.91-5.375 6.84-7.328 11.239-3.418 6.351-9.77 13.191-11.726 20.52-2.93 2.929-5.371 3.905-6.352 7.816.98-1.465-3.418 5.375-5.86 6.84-1.956 2.44-3.91 6.347-6.35 7.812-1.958 8.309-2.934 11.73-4.4 20.035-4.886 5.863-2.929 9.281-7.327 15.633-1.953 2.934-1.953 7.82-5.375 10.262-2.93 1.464-3.907 6.351-7.328 7.816-2.442 5.863-8.305-1.953-11.727 3.422-1.953 3.906-8.793 9.281-12.21 10.746-1.958-1.465-3.423 1.461-5.864.977-2.934-.489-6.352-.977-8.797-.489-.977-.488-2.442-.488-3.906 0-5.864-.488-8.793-5.863-15.145-5.375-1.957-2.441-4.398-4.882-7.328-7.328-5.863-3.418-6.84-10.746-10.75-15.633 1.465-4.886-5.375-9.28 0-13.195-1.465-14.652 12.215-23.445 18.566-33.219 6.352-6.351 10.258-15.144 18.075-19.054 7.328-7.817 13.191-18.075 21.988-25.403 3.906-2.449 7.816-6.351 9.281-10.75 5.375-3.418 11.727-6.351 16.61-10.746 3.91 1.461 4.398-6.84 8.796-2.933.489.976 0 2.933 1.465 3.421 2.442-.976 4.399-5.375 7.817-3.421 2.441 0 2.441 2.933 2.93 4.394-2.442 4.887-8.305 6.844-7.329 12.219-.976 3.906-9.281 5.367-4.394 10.258 2.441-1.953 4.394-5.375 8.304-4.399 4.399-4.394 8.305-9.285 14.657-11.234 1.464-3.426 4.886-3.426 7.816-5.863 6.352-3.422 10.262-10.75 17.102-13.192 4.882-6.351 12.214-9.77 18.562-14.656.492.488.98.488 1.469.488.976-1.953 1.953-2.933 3.906-2.933 1.469.98.488 4.398 2.934 4.886zm0 0" fill-rule="evenodd" fill="#ffdc00"/><path d="M112.813 136.902v27.164H63.508c-6.395 0-12.063-.304-17.008-.914-4.945-.613-10.313-2.207-16.094-4.793a48.767 48.767 0 01-15.297-10.73c-4.41-4.566-7.644-9.473-9.699-14.723-2.055-5.25-3.46-10.844-4.223-16.777-.761-5.938-1.14-12.102-1.14-18.492v-97.7h34.238v100.325c0 2.816.27 6.66.8 11.527.532 4.871 2.095 9.285 4.68 13.242 2.282 3.957 6.087 6.922 11.415 8.903 5.324 1.976 12.172 2.968 20.543 2.968zm31.667-53.847h-28.093V69.91h34.367c4.098 0 7.855.403 11.273 1.207 3.418.805 6.754 2.914 10.008 6.332 3.258 3.414 4.887 8.82 4.887 16.215v39.797h-44.98c-6.274 0-11.094-1.688-14.473-5.066-3.535-3.215-5.305-7.797-5.305-13.747v-1.687c.402-3.617 1.246-6.613 2.531-8.984 1.29-2.372 3.098-4.22 5.426-5.547a24.691 24.691 0 017.54-2.774c2.69-.523 6.007-.785 9.948-.785h22.188c0-3.375-.625-5.926-1.871-7.656-1.246-1.727-2.934-2.852-5.063-3.375-2.133-.524-4.925-.785-8.383-.785zm-5.667 37.746h20.984v-13.266H140.02c-2.813 0-5.204.418-7.176 1.266-1.969.844-2.953 2.633-2.953 5.363 0 1.852.422 3.277 1.265 4.285.844 1.004 1.852 1.645 3.016 1.922 1.164.285 2.71.43 4.64.43zm69.703 12.659H191.87V69.91h31.477c5.867 0 10.73.684 14.59 2.05 3.859 1.368 6.832 3.759 8.921 7.177 2.09 3.418 3.137 8.097 3.137 14.047v40.277h-17.004V95.355a35.49 35.49 0 00-.18-3.68c-.12-1.163-.382-2.41-.785-3.737-.402-1.325-1.367-2.31-2.894-2.954-1.528-.644-3.899-.964-7.113-.964h-13.504zm84.652-63.55h30.629v61.14c0 5.466-.824 10.067-2.473 13.805-1.648 3.739-4.242 6.614-7.777 8.622-3.7 1.851-8.32 2.77-13.867 2.77h-32.922v-12.9h29.906c6.754 0 10.129-3.296 10.129-9.886h-15.195c-3.375 0-6.13-.121-8.258-.363-2.133-.239-4.442-.883-6.934-1.934-2.492-1.043-5.086-2.848-7.777-5.422-2.695-2.57-4.824-5.953-6.395-10.129-1.566-4.18-2.351-8.761-2.351-13.746 0-10.289 2.094-17.445 6.273-21.465 4.18-4.02 7.555-6.593 10.13-7.718 2.57-1.125 5.144-1.848 7.718-2.168 2.57-.325 4.539-.504 5.906-.543 1.367-.043 2.453-.063 3.258-.063zm2.894 50.406h10.731V83.54l-1.93-.125h-6.914c-3.879 0-7.254.363-10.168 1.09-2.894.723-5.043 1.906-6.41 3.555-1.367 1.644-2.371 3.296-2.976 4.945-.602 1.648-.903 3.516-.903 5.605v3.739c0 7.156 2.168 12.261 6.512 15.316 1.445 1.125 3.113 1.848 5.004 2.172 1.887.32 4.238.48 7.055.48zm82.243-50.406h16.761v63.55h-31.593c-5.711 0-10.493-.741-14.352-2.23-3.86-1.488-6.812-3.94-8.863-7.359-2.051-3.418-3.074-7.976-3.074-13.683V69.91h16.64v39.07c0 2.575.32 4.665.965 6.274.64 1.605 1.77 2.73 3.375 3.375 1.61.644 3.777.965 6.512.965h13.629zm61.136 13.14h-28.097V69.91h34.367c4.101 0 7.86.403 11.277 1.203 3.414.801 6.75 2.914 10.008 6.332 3.254 3.418 4.883 8.825 4.883 16.22v39.788h-44.98c-6.27 0-11.094-1.683-14.47-5.058-3.538-3.215-5.304-7.797-5.304-13.747v-1.695c.402-3.613 1.246-6.605 2.531-8.976 1.285-2.375 3.094-4.223 5.426-5.547a24.49 24.49 0 017.54-2.774c2.69-.523 6.007-.785 9.944-.785h22.192c0-3.379-.625-5.93-1.871-7.656-1.246-1.73-2.934-2.856-5.067-3.38-2.129-.522-4.922-.784-8.379-.784zm-5.668 37.747h20.985V107.53H434.98c-2.816 0-5.207.422-7.175 1.266-1.97.844-2.953 2.633-2.953 5.367 0 1.848.421 3.277 1.265 4.281.844 1.004 1.848 1.649 3.016 1.926 1.164.285 2.71.426 4.64.426zm155.075-.481h28.097v13.145h-34.367c-4.101 0-7.86-.402-11.273-1.207-3.418-.805-6.754-2.914-10.012-6.328-3.254-3.418-4.883-8.824-4.883-16.223V69.91h44.98c6.27 0 11.094 1.688 14.47 5.067 3.538 3.214 5.308 7.796 5.308 13.746v1.687c-.402 3.617-1.246 6.613-2.535 8.985-1.285 2.37-3.094 4.222-5.426 5.546a24.604 24.604 0 01-7.535 2.774c-2.695.523-6.012.781-9.95.781h-22.187c0 3.375.621 5.934 1.867 7.66 1.246 1.73 2.934 2.856 5.067 3.375 2.129.524 4.922.785 8.379.785zm5.668-37.742h-20.98v13.262h19.773c2.816 0 5.207-.422 7.175-1.266 1.97-.843 2.957-2.632 2.957-5.367 0-1.848-.421-3.273-1.27-4.277-.843-1.012-1.847-1.649-3.01-1.93-1.169-.281-2.716-.422-4.645-.422zM515.773 69.91h30.63v61.14c0 5.466-.825 10.067-2.473 13.805-1.649 3.739-4.242 6.614-7.778 8.622-3.699 1.851-8.32 2.77-13.867 2.77h-32.922v-12.9h29.907c6.753 0 10.128-3.296 10.128-9.886h-15.195c-3.375 0-6.129-.121-8.258-.363-2.132-.239-4.441-.883-6.933-1.934-2.492-1.043-5.086-2.848-7.782-5.422-2.69-2.57-4.82-5.953-6.39-10.129-1.567-4.18-2.352-8.761-2.352-13.746 0-10.289 2.09-17.445 6.274-21.465 4.18-4.02 7.554-6.593 10.129-7.718 2.57-1.125 5.144-1.848 7.714-2.168 2.575-.325 4.543-.504 5.91-.543a108.45 108.45 0 013.258-.063zm2.895 50.406h10.73V83.54l-1.93-.125h-6.913c-3.88 0-7.254.363-10.168 1.09-2.895.723-5.047 1.906-6.414 3.555-1.368 1.644-2.371 3.296-2.973 4.945-.602 1.648-.906 3.516-.906 5.605v3.739c0 7.156 2.172 12.261 6.511 15.316 1.45 1.125 3.118 1.848 5.008 2.172 1.887.32 4.239.48 7.055.48zm0 0" fill-rule="evenodd" fill="#fff"/><path d="M458.375 183.438c0 4.398-.926 10.476-2.816 18.171-3.47 14.188-7.008 21.262-10.649 21.262-.93 0-1.512-.441-1.754-1.3a29.608 29.608 0 01-.617-2.716c-2.816 2.852-7.144 7.008-12.984 12.508-10.239 8.657-18.414 12.985-24.567 12.985-1.715 0-3.675-.79-5.87-2.371-2.235-1.579-3.54-3.368-4.02-5.434a16.268 16.268 0 01-.485-4.012c0-8.66 4.95-19.308 14.88-31.988 9.925-12.672 19.03-19 27.378-19 4.086 0 8.418 2.855 12.984 8.523.313-1.273.485-2.129.485-2.609 0-9.45-4.332-15.355-12.988-17.691-1.098-.48-2.2-.727-3.297-.727-2.543 0-5.086 1.344-7.696 4.024-2.578 2.68-4.605 4.085-6.011 4.226-1.72-1.719-1.961-4.398-.688-8.004 1.238-2.996 3.848-5.531 7.762-7.558 3.332-1.754 6.7-2.614 10.172-2.614 6.629 0 12.125 2.922 16.523 8.727 2.852 3.95 4.258 9.14 4.258 15.597zm-15.355 25.007c0-3.297-.72-6.285-2.13-8.965-1.718-3.609-4.261-5.433-7.558-5.433-5.496 0-11.613 3.34-18.309 10.039-6.699 6.695-10.035 12.95-10.035 18.785 0 5.05 3.059 7.8 9.211 8.25 7.246-1.89 15.047-6.836 23.395-14.875a43.373 43.373 0 014.02-4.02c.925-1.097 1.406-2.335 1.406-3.78zm78.12-48.61c.173.786 0 2.028-.48 3.778-2.508.793-6.113 2.028-10.855 3.782-2.371.925-5.325 3.195-8.864 6.734-3.539 3.535-6.011 6.629-7.421 9.309-1.887 2.851-4.739 7.796-8.52 14.875-2.816 7.421-6.043 15.835-9.652 25.285-.48.308-1.032.789-1.649 1.41-3.023 2.504-5.84 3.777-8.52 3.777-2.37 0-3.538-.789-3.538-2.37l8.726-42.977c0-.141.207-1.72.582-4.708.414-2.988.621-5.253.621-6.835.137-4.09 0-7.18-.484-9.208 1.582-1.44 3.23-2.921 4.95-4.5 1.405-1.101 3.16-1.648 5.187-1.648 2.851 0 4.257 1.89 4.257 5.664 0 .621-.375 6.36-1.168 17.211 1.891-2.023 5.223-5.254 10.032-9.648 4.812-4.438 11.922-7.801 21.37-10.168h4.466c.96.168 1.27.238.96.238zm69.673-.722c-.172.965-.653 2.133-1.442 3.54-.312.343-3.848 2.675-10.617 7.113-5.668 3.297-14.016 8.175-25.043 14.632-.309.137-.996 4.055-1.992 11.68-1.032 7.629-1.547 15.594-1.547 23.945 0 1.582-.48 3.473-1.41 5.668-3.469 2.68-6.63 4.02-9.446 4.02-2.062 0-3.296-.48-3.78-1.406l3.093-35.903a421.64 421.64 0 01-9.688 4.985c.309.617 1.032.925 2.13.925 2.335 0 3.538.172 3.538.477v.246c-1.582 1.235-4.293 2.68-8.14 4.227-3.883 1.578-6.805 2.437-8.867 2.61-.961.167-2.848-.481-5.668-1.892.171-1.578 1.03-3.058 2.613-4.5 2.508-2.644 6.422-5.324 11.781-8.003 8.04-3.95 12.438-6.082 13.227-6.391.793-2.508 1.34-5.426 1.648-8.727.656-4.879 1.031-7.797 1.203-8.726.93-6.457 1.89-12.985 2.817-19.613 1.101-8.348 2.851-15.192 5.191-20.547 3.95-2.368 6.938-3.535 8.965-3.535 2.234 0 3.09.718 2.61 2.128-1.579 4.88-3.54 15.254-5.907 31.16-1.41 10.063-1.96 16.52-1.652 19.376a222.34 222.34 0 009.449-5.43c6.77-4.258 11.816-7.867 15.117-10.856 1.715-1.578 4.809-2.37 9.207-2.37.926 0 1.82.378 2.61 1.167zm51.976 46.07c0 8.348-10.613 15.665-31.879 21.954-7.078 2.199-10.855 3.297-11.336 3.297-5.015 1.41-9.277 2.199-12.746 2.37-.48 0-1.031-.788-1.648-2.37 6.765-6.457 16.386-11.715 28.789-15.836 0 .789-.07 1.27-.207 1.441a148.57 148.57 0 00-8.04 7.078c1.41-.172 3.95-.789 7.56-1.89 3.16-1.41 6.39-2.856 9.687-4.258 4.879-2.68 7.316-5.602 7.316-8.727 0-4.262-5.289-7.73-15.836-10.41-2.644-.617-6.219-1.719-10.617-3.297-9.445-3.3-14.566-6.597-15.355-9.93-.926-3.609-.926-6.218 0-7.765 2.199-3.332 7.18-6.7 14.875-10.168 5.359-2.371 8.656-3.848 9.93-4.5 5.015-1.89 8.792-2.887 11.335-3.059a54.63 54.63 0 004.946-.683c2.199-.176 3.3.48 3.3 1.886 0 1.27-1.89 3.848-5.668 7.801-.312.309-1.41.856-3.3 1.649-1.887.789-2.989 1.168-3.297 1.168-.79 0-1.442-.313-1.993-.965-.585-.617-.996-1.098-1.304-1.406-1.446 0-4.262.789-8.52 2.37-5.187 1.715-7.8 3.47-7.8 5.188 0 3.293 3.574 6.7 10.652 10.168 1.578.79 6.457 2.578 14.633 5.426 5.668 1.89 10.308 4.328 13.914 7.32 1.754 1.406 2.61 3.469 2.61 6.149zm0 0" fill-rule="evenodd" fill="#e30016"/><g clip-path="url(#a)"><path d="M371.031 214.82c-2.113-.304-4.676-.465-6.785-1.53l-8.004 3.148c-1.199-2.114-2.87 1.199-3.922.289-3.172 1.046-1.984 6.933-5.898 4.207-2.262-.004-5.125-1.07-7.242.886-4.973-2.129-9.508.875-14.477-2.004-2.265.746-4.976.137-7.238-.625-1.965.899-4.375.438-6.64 1.188-2.712-1.367-5.583-.168-8.145-1.086-2.567 1.355-5.125-1.82-7.243.129-1.203-.602-1.812.601-2.414.3-3.62.442-6.933-1.98-10.406-.331-3.918-1.223-7.55 2.992-11.77.87-2.417 1.802-5.429-.472-8 .88-1.202-1.36-2.261.75-3.773.746-2.41-1.219-5.281.734-7.086-.93-1.508-.004-2.117 1.203-3.625 1.2-1.058 1.35-2.11-.31-3.316-.16-2.266.745-4.824-.923-6.492.882-2.418 1.805-4.82-1.672-7.239.133-1.207.144-1.812.597-2.718.894-3.465-1.367-6.79-.02-10.254-1.386-2.117 1.953-5.281-.016-7.395 1.183-4.68.29-8.758 1.637-13.433 1.918-1.203-1.355-2.114.453-3.168.293-3.621.445-6.793 1.492-10.114 1.332-2.566 1.352-5.578-.168-8.148 1.184-.902-.457-1.508-.762-2.563-.16-1.207-.606-2.113.449-3.32.593-4.074-.16-5.894 3.453-9.512 1.633-1.207.902-2.418 2.559-3.925 1.793-.91 1.813-3.016-.758-4.075.598-1.507-.758-2.113.445-3.62.441-2.114-.308-4.536 3.004-5.587.586-3.02.746-5.59 2.852-8.754 2.39-1.667 1.805-3.468-.617-4.832 1.34-1.957-1.363-3.32-.16-4.832.59-.148-.453-.601-.3-.902-.453-.305 1.356-.602-.304-1.66.297-2.414.293-4.535 3.004-6.942 1.035-.156 1.051-1.359.45-1.812.598-1.059.601-1.516 3.012-3.324 2.101.152-.3-.149-1.207-.149-1.207-1.66.297-1.812.598-3.015-.007-1.672 3.312-4.684 1.797-7.098 2.09-1.059.601-2.422 2.558-3.625 1.949l-.3-.149c-.305-.152-.302-.906-.755-.758-.906 1.055-1.812 1.352-3.023 2.254l-.45-1.363c-.913 3.32-4.382 2.707-7.1 3.602-6.497 3.148-14.497 4.785-20.243 9.441-1.207.152-3.168 1.05-4.527 1.5-.61 1.203-1.817 1.352-2.723 1.652-2.113 1.2-3.328 3.606-6.191 2.547-1.82 2.86-5.438 2.547-7.258 5.407-4.227.894-6.352 5.867-10.578 6.003-1.063 2.11-3.02 1.5-4.536 3.004-1.058 1.356-2.718 1.653-4.226 1.645-1.055-.152-1.656-1.211-1.957-2.113.906-.301-.75-.758-.145-1.207-.453.148-.906.296-.757.75l-.149-.454c-1.21 1.657-3.93 1.801-5.133.434-1.496-3.016-5.875-2.582-5.715-5.894-.898-1.211-.593-3.32-2.097-4.083.004-1.507.011-3.77-.739-5.28 1.067-3.618-.585-6.337-1.48-9.81-3.46-3.632-1.332-9.359-1.016-13.73 2.434-6.328 2.45-12.367 3.977-18.394 3.324-2.102 6.039-2.243 9.512-3.145 1.96-.14 2.715.617 4.824.922 5.586-1.34 10.117-2.832 15.547-3.125l7.097-2.086c.61-1.96 2.868-.445 4.075-.59 4.382-2.703 8.906-1.18 13.437-3.43 3.012 1.516 4.38-1.949 7.395-1.19 1.816-1.349 4.074-.587 6.039-1.485 4.832-2.098 10.719-2.535 15.394-2.825 3.778-2.25 8.453-1.03 12.828-2.222 3.926-.293 8.297.023 12.075-1.473 4.074.16 7.992.625 11.468-1.023 4.528-.742 9.356-.574 13.883-2.07 3.164 1.214 6.192-1.794 9.055.023 2.266-2.258 6.18 1.226 8.3-1.48 4.52 1.519 8.606-2.087 13.126-.57.906-.294 1.66-.294 2.117-1.2 6.937.476 14.031-1.613 20.969-.387 3.93-2.555 8.445.477 12.523-.87 3.316.917 6.64-1.188 10.258-.122 2.719-.895 5.433-.285 8.297.027 1.664-1.05 3.02-.746 4.226-.898 4.067 1.676 8.45-1.027 12.52.644 2.719-.902 5.582.168 8.3-.73 3.317.16 6.938-.281 9.649 1.082 4.074-.59 7.387 1.836 11.164.34 4.078-1.348 8.14 1.832 12.067.785 1.203 1.363 2.71.613 3.917.469 5.125 1.824 10.262-.121 15.082 1.55 3.926-1.042 7.387 2.586 11.313.79 2.71 2.117 5.281.015 8.445.476 3.32.16 7.235 2.133 10.86.938 4.824 1.672 11.617.183 14.468 5.02.149 1.206-1.816 2.105-.46 3.167 4.519 1.52 10.261-2.383 13.87 2.453 4.223-.136 6.626 3.34 10.25 2.14 1.204 1.364.137 4.981-2.277 5.274zm0 0" fill-rule="evenodd" fill="#ffdc00"/></g></svg>