<svg xmlns="http://www.w3.org/2000/svg" viewBox="0 0 1570.7 293"><path d="M410.1 124.7h-42.7l-5.2 14.1h-21.8L388.8 14l48.6 124.8h-21.8l-5.5-14.1zM374 107.2h29.5l-14.7-42-14.8 42zm142.2 11.3v20.3H451V17.5h20.3v101h44.9zM620.3 104c0 33.2-34 34.8-42.1 34.8h-40.4V17.7h40.4s40.4-1.1 40.4 34c0 15.9-9.9 24.1-20.3 26.7 22.9 4.6 22 25.6 22 25.6zm-62.4-35.9h20.3s20.1 0 20.1-15c0-16.3-20.1-15.2-20.1-15.2h-20.3v30.2zm42.1 35.3c0-16.3-21.8-15-21.8-15h-20.3v30.3h20.3c8.5 0 21.8-2.1 21.8-15.3zm42.3-3.4V17.5h20.3V100c1.1 14.1 12.3 20.3 25.2 20.3 12.7 0 25.3-6.8 25.3-20.3V17.5h20.3V100c0 25.9-19.8 40.6-45.6 40.6-25 0-45.5-15.7-45.5-40.6zm223.1 42.1l-13-12.8c-9.9 7.1-22.2 11.3-35.4 11.3-36.6 0-60.7-28.8-60.7-62.4 0-33.4 23-62.4 60.7-62.4 36.1 0 60.7 28.9 60.7 62.4 0 13-4 26.8-11.1 36.8l13 13-14.2 14.1zm-27.6-27.6l-13-12.8 14.4-14.4 12.8 12.8c3.4-5.9 5.5-14.5 5.5-22 0-22.3-14.1-42.1-40.6-42.1-25.5 0-40.4 19.8-40.4 42.1s15.9 42.3 40.4 42.3c6.7 0 14.9-2.2 20.9-5.9zM904 100V17.5h20.3V100c1.1 14.1 12.3 20.3 25.2 20.3 12.7 0 25.3-6.8 25.3-20.3V17.5h20.3V100c0 25.9-19.8 40.6-45.6 40.6-25 0-45.5-15.7-45.5-40.6zm138.6-62.3V68h50.4v20.1h-50.4v30.3h60.7v20.3h-80.9V17.5h80.9v20.3l-60.7-.1zm118.2 50.5h-16.4v50.6h-20.3V17.5h40.4s40.6 0 40.6 35.4c0 19.6-12.5 28.2-23.4 32.2l24.8 53.7h-22.3l-23.4-50.6zm-16.4-20.1h20.1s20.3 0 20.3-15.2c0-15-20.3-15-20.3-15h-20.1v30.2zm188.3 74l-13-12.8c-9.9 7.1-22.2 11.3-35.4 11.3-36.6 0-60.7-28.8-60.7-62.4 0-33.4 23-62.4 60.7-62.4 36.1 0 60.7 28.9 60.7 62.4 0 13-4 26.8-11.1 36.8l13 13-14.2 14.1zm-27.5-27.6l-13-12.8 14.4-14.4 12.8 12.8c3.4-5.9 5.5-14.5 5.5-22 0-22.3-14.1-42.1-40.6-42.1-25.5 0-40.4 19.8-40.4 42.1s15.9 42.3 40.4 42.3c6.7 0 14.8-2.2 20.9-5.9zm66.2-14.5V17.5h20.3V100c1.1 14.1 12.3 20.3 25.2 20.3 12.7 0 25.3-6.8 25.3-20.3V17.5h20.3V100c0 25.9-19.8 40.6-45.6 40.6-25.1 0-45.5-15.7-45.5-40.6zM1510 37.7V68h50.4v20.1H1510v30.3h60.7v20.3h-80.9V17.5h80.9v20.3l-60.7-.1zM430.2 155.3l-48.6 124.5-48.4-124.5H355l26.5 71.6 26.7-71.6h22zm14.4 0h20.3v121.3h-20.3V155.3zm149.1 121.4h-20.4L513 190.4v86.3h-20.3V155.3H513l60.5 86.3v-86.3h20.1v121.4zm125.2-121.4l-45.6 63.9v57.4H653v-57.4l-45.6-63.9h24.8l31.1 43.4 30.9-43.4h24.7zm79.2 101.1v20.3h-65.2V155.3h20.3v101.1h44.9zm22.2 36.6v-14.9c-5.9 0-10.7-4.8-10.7-10.7 0-5.9 4.8-10.7 10.7-10.7 20.4-.1 11.6 29 0 36.3zM977 256.4v20.3h-65.2V155.3h20.3v101.1H977zm86.8 0v20.3h-65.2V155.3h20.3v101.1h44.9zm106.9-10l14.2 14.4c-10.9 10.9-26 17.7-42.8 17.7-33.4 0-60.9-24.3-60.9-62.4 0-36.6 25.3-62.4 60.9-62.4 16.8 0 31.9 6.8 42.8 17.9l-14.2 14.2c-7.3-7.3-17.5-11.8-28.6-11.8-25 0-40.2 17.7-40.2 42.1 0 26 17.9 42.1 40.2 42.1 11.1 0 21.4-4.5 28.6-11.8zm-1017.6-3H59.5L48 274.3H0L106.3 0 213 274.2h-48l-11.9-30.8zM74 204.9h64.7l-32.4-92.5L74 204.9zM350.1 7.6L243.5 281 137.1 7.6h48l58.3 157.3L302.1 7.6h48z"/></svg>